<svg width="25" height="24" viewBox="0 0 25 24" fill="none" xmlns="http://www.w3.org/2000/svg">
<g clip-path="url(#clip0)">
<path d="M24.5 12.2755C24.5 11.4598 24.4326 10.6397 24.2886 9.83716H12.7407V14.4581H19.3537C19.0792 15.9485 18.1975 17.2669 16.9064 18.1047V21.103H20.8517C23.1685 19.013 24.5 15.9264 24.5 12.2755Z" fill="#4285F4"/>
<path d="M12.7409 24C16.0428 24 18.8275 22.9373 20.8563 21.103L16.9111 18.1047C15.8134 18.8366 14.3964 19.2511 12.7454 19.2511C9.55137 19.2511 6.84322 17.139 5.87152 14.2994H1.80029V17.3904C3.87864 21.4426 8.11182 24 12.7409 24V24Z" fill="#34A853"/>
<path d="M5.86663 14.2995C5.35379 12.8091 5.35379 11.1953 5.86663 9.70496V6.61401H1.7999C0.0634443 10.0048 0.0634443 13.9996 1.7999 17.3904L5.86663 14.2995V14.2995Z" fill="#FBBC04"/>
<path d="M12.7409 4.74881C14.4863 4.72235 16.1733 5.36611 17.4374 6.54781L20.9328 3.12176C18.7195 1.08465 15.7819 -0.0353205 12.7409 -4.58262e-05C8.11182 -4.58262e-05 3.87864 2.55737 1.80029 6.61395L5.86702 9.7049C6.83422 6.86088 9.54687 4.74881 12.7409 4.74881V4.74881Z" fill="#EA4335"/>
</g>
<defs>
<clipPath id="clip0">
<rect width="24" height="24" fill="white" transform="translate(0.5)"/>
</clipPath>
</defs>
</svg>
